<svg xmlns="http://www.w3.org/2000/svg" xmlns:xlink="http://www.w3.org/1999/xlink" viewBox="0 0 80 60"><defs><path id="a" d="M0 9.453h80v41.093H0z"/></defs><clipPath id="b"><use xlink:href="#a"/></clipPath><g clip-path="url(#b)"><path d="M68.534 36.155l9.24.005c2.271.014 2.552.395 1.957 2.573L76.966 48.82a1.966 1.966 0 0 1-2.17 1.739 1.33 1.33 0 0 1-.091-.012l-59.966-.02a4.156 4.156 0 0 1-3.88-2.197L.899 31.996C-.379 29.94.09 27.721.058 25.557c-.067-4.523-.02-4.523 4.568-4.523 3.78 0 3.797 0 3.725-3.715l-.221-3.706c0-2.639 1.411-4.143 4.031-4.146l48.594.02a19.6 19.6 0 0 1 8.324 2.031c8.534 4.012 10.371 13.511 3.955 20.446-1.359 1.468-3.048 2.514-4.5 4.191"/><path d="M51.052 20.766l-12.47 23.919c-1.074 2.137-2.29 2.987-4.71 2.86-4.183-.219-3.931.337-3.922-3.935V30.89c-.693.218-.744.787-.943 1.216l-6.208 13.48c-.657 1.499-1.531 2.179-3.142 1.906a7.405 7.405 0 0 0-1.032-.009c-5.146-.128-4.338.95-4.782-4.435l-2.085-28.022c-.189-2.54-.114-2.641 2.51-2.644l5.79-.031c1.706-.12 2.105.565 2.066 2.154-.098 4.105-.033 8.215-.033 12.686a7.923 7.923 0 0 0 1.657-2.879l4.904-10.449a2.243 2.243 0 0 1 2.346-1.513c6.332-.06 6.332-.097 6.332 6.14v8.395l.375.103c1.917-4.055 3.949-8.062 5.7-12.187.795-1.871 1.777-2.559 3.83-2.472 4.198.178 8.41.058 12.615.051a18.676 18.676 0 0 1 8.749 2.075c6.53 3.379 7.641 10.571 2.373 15.745-3.451 3.392-7.844 4.74-12.499 5.261a1.95 1.95 0 0 0-2.027 1.715c-.665 2.667-1.545 5.285-2.133 7.968-.409 1.865-1.379 2.513-3.197 2.363-1.369-.113-2.756-.019-4.133-.023-2.48-.008-2.692-.269-2.059-2.583l6.359-23.249a5.49 5.49 0 0 0 .101-.798l-.319-.088" fill="#fefefe"/><path d="M58.414 44.318c.138-3.208 3.238-5.783 5.868-4.967.663.206 1.708.468 1.443 1.391-.338 1.175-1.112.451-1.759.103a2.31 2.31 0 0 0-3.103.747c-.828 1.027-1.499 2.237-.776 3.577.812 1.505 2.041.936 3.207.445.39-.162.799-.757 1.199-.094.359.596-.185.88-.584 1.102-1.276.712-2.594 1.365-4.055.503a2.797 2.797 0 0 1-1.44-2.807" fill="#f7f7f7"/><path d="M68.583 47.301c-2.89 0-2.889 0-2.027-2.781l1.266-4.133c.163-.546.317-1.143 1.051-.99.926.193.399.858.301 1.314-.156.735-.416 1.451-.634 2.174-.827 2.735-.827 2.738 1.908 3.082.398.05.883-.037.922.54.044.632-.373.803-.926.795-.619-.01-1.239 0-1.858 0" fill="#f5f5f5"/><path d="M4.83 23.499c1.096.724 1.618 1.963 2.47 2.911.546.607.28 1.096-.14 1.623l-1.731 2.296a.796.796 0 0 1-1.247.14.72.72 0 0 1-.331-.96.71.71 0 0 1 .211-.257c1.578-1.446 1.475-2.785 0-4.284-.729-.74-.023-1.181.766-1.47" fill="#f9f9f9"/><path d="M72.877 46.203l1.727-6.041c.146-.499.459-.88 1.043-.726.712.188.443.664.302 1.138l-1.682 5.889c-.172.655-.459.967-1.132.786-.645-.175-.285-.635-.258-1.046" fill="#f1f1f1"/><path d="M65.479 23.356a3.45 3.45 0 0 1-1.871 2.868 9.256 9.256 0 0 1-3.659 1.248c-1.205.172-1.666-.144-1.197-1.454a22.846 22.846 0 0 0 1.184-4.336c.253-1.732 1.242-1.747 2.487-1.356 1.559.489 2.93 1.21 3.057 3.032" fill="#020202"/></g></svg>